<svg width="12" height="12" viewBox="0 0 12 12" fill="none" xmlns="http://www.w3.org/2000/svg">
<path d="M11.5243 11.5242C11.3485 11.7 11.11 11.7988 10.8614 11.7988C10.6127 11.7988 10.3743 11.7 10.1984 11.5242L6 7.32578L1.80155 11.5242C1.62574 11.7 1.38728 11.7988 1.13864 11.7988C0.89 11.7988 0.651543 11.7 0.475728 11.5242C0.299913 11.3484 0.201141 11.11 0.201141 10.8613C0.201141 10.6127 0.299913 10.3742 0.475728 10.1984L4.67417 5.99996L0.475728 1.80151C0.299913 1.6257 0.201141 1.38724 0.201141 1.1386C0.201141 0.889959 0.299913 0.651503 0.475728 0.475688C0.651544 0.299872 0.890001 0.2011 1.13864 0.2011C1.38728 0.2011 1.62574 0.299872 1.80155 0.475688L6 4.67413L10.1984 0.475688C10.3743 0.299872 10.6127 0.2011 10.8614 0.2011C11.11 0.2011 11.3485 0.299872 11.5243 0.475688C11.7001 0.651503 11.7989 0.889959 11.7989 1.1386C11.7989 1.38724 11.7001 1.6257 11.5243 1.80151L7.32583 5.99996L11.5243 10.1984C11.7001 10.3742 11.7989 10.6127 11.7989 10.8613C11.7989 11.11 11.7001 11.3484 11.5243 11.5242Z" fill="#696969"/>
</svg>
