<svg width="36" height="35" viewBox="0 0 36 35" fill="none" xmlns="http://www.w3.org/2000/svg">
<path d="M33.2434 9.28667C33.4739 8.54436 33.2434 8 32.1532 8H28.5417C27.6227 8 27.2028 8.47093 26.9722 8.98815C26.9722 8.98815 25.136 13.3287 22.534 16.1431C21.6941 16.962 21.3104 17.2206 20.8526 17.2206C20.6237 17.2206 20.291 16.962 20.291 16.2197V9.28667C20.291 8.3959 20.0259 8 19.2601 8H13.5851C13.012 8 12.6662 8.41186 12.6662 8.80457C12.6662 9.64745 13.9672 9.84221 14.1006 12.2176V17.3707C14.1006 18.4993 13.8914 18.7053 13.4303 18.7053C12.2067 18.7053 9.22923 14.3488 7.46218 9.3617C7.11799 8.39271 6.77051 8.0016 5.84828 8.0016H2.23842C1.20585 8.0016 1 8.47253 1 8.98975C1 9.91884 2.2236 14.5164 6.69969 20.597C9.68376 24.7491 13.8848 27 17.7121 27C20.0061 27 20.2894 26.5003 20.2894 25.6383V22.4998C20.2894 21.5005 20.5084 21.2994 21.2347 21.2994C21.7682 21.2994 22.6872 21.5612 24.8297 23.5614C27.2769 25.9336 27.682 26.9984 29.0571 26.9984H32.667C33.6979 26.9984 34.2134 26.4987 33.9169 25.5122C33.5925 24.5304 32.4232 23.1017 30.8719 21.4111C30.0287 20.4469 28.7689 19.4093 28.3852 18.8904C27.85 18.2216 28.0048 17.9262 28.3852 17.3324C28.3869 17.334 32.7856 11.3284 33.2434 9.28667V9.28667Z" fill="#FF57FF"/>
</svg>
