<svg width="24" height="23" viewBox="0 0 24 23" fill="none" xmlns="http://www.w3.org/2000/svg">
<g clip-path="url(#clip0_3_279)">
<path fill-rule="evenodd" clip-rule="evenodd" d="M17.415 13.7828C17.117 13.64 15.656 12.9519 15.384 12.8561C15.112 12.7612 14.914 12.7142 14.715 12.9998C14.517 13.2835 13.948 13.9256 13.775 14.1153C13.601 14.306 13.428 14.329 13.131 14.1872C12.834 14.0435 11.876 13.7435 10.741 12.7737C9.858 12.0185 9.261 11.086 9.088 10.8005C8.915 10.5158 9.069 10.3615 9.218 10.2197C9.352 10.0922 9.515 9.88716 9.664 9.72137C9.813 9.55462 9.862 9.43579 9.961 9.24508C10.061 9.05533 10.011 8.88954 9.936 8.74675C9.862 8.60396 9.268 7.20191 9.02 6.63171C8.779 6.07683 8.534 6.15254 8.352 6.14296C8.178 6.13529 7.98 6.13337 7.782 6.13337C7.584 6.13337 7.262 6.20429 6.99 6.48987C6.717 6.7745 5.95 7.46354 5.95 8.86558C5.95 10.2667 7.014 11.6208 7.163 11.8115C7.312 12.0012 9.258 14.8782 12.239 16.1115C12.949 16.4048 13.502 16.5802 13.933 16.7105C14.645 16.928 15.293 16.8974 15.805 16.8236C16.375 16.7421 17.563 16.1345 17.811 15.4695C18.058 14.8044 18.058 14.2342 17.984 14.1153C17.91 13.9965 17.712 13.9256 17.414 13.7828H17.415ZM11.993 20.8773H11.989C10.2184 20.8776 8.48037 20.4215 6.957 19.5567L6.597 19.3517L2.855 20.2927L3.854 16.7967L3.619 16.4383C2.62914 14.9283 2.10529 13.1807 2.108 11.3975C2.11 6.17458 6.544 1.92533 11.997 1.92533C14.637 1.92533 17.119 2.91241 18.985 4.70258C19.9054 5.58097 20.6349 6.62554 21.1313 7.77586C21.6277 8.92618 21.8811 10.1594 21.877 11.4042C21.875 16.6271 17.441 20.8773 11.993 20.8773V20.8773ZM20.405 3.34271C19.3032 2.27984 17.9922 1.4371 16.5481 0.863306C15.1039 0.289517 13.5553 -0.0039064 11.992 3.92702e-05C5.438 3.92702e-05 0.102 5.11275 0.1 11.3965C0.096963 13.3963 0.644374 15.3615 1.687 17.0938L0 23L6.304 21.415C8.04787 22.3255 10.0021 22.8026 11.988 22.8026H11.993C18.547 22.8026 23.883 17.6899 23.885 11.4052C23.8898 9.90755 23.5848 8.42388 22.9874 7.03999C22.3901 5.65609 21.5124 4.39943 20.405 3.34271" fill="#FF57FF"/>
</g>
<defs>
<clipPath id="clip0_3_279">
<rect width="24" height="23" fill="white"/>
</clipPath>
</defs>
</svg>
