<svg width="62" height="62" viewBox="0 0 62 62" fill="none" xmlns="http://www.w3.org/2000/svg">
<rect x="0.5" y="0.5" width="61" height="61" rx="30.5" fill="url(#paint0_linear_3_1279)" fill-opacity="0.07"/>
<rect x="0.5" y="0.5" width="61" height="61" rx="30.5" stroke="white"/>
<path d="M23.65 46L23.683 44.185L34.606 34.2685C35.574 33.3995 36.2065 32.569 36.5035 31.777C36.8005 30.974 36.949 30.116 36.949 29.203C36.949 28.169 36.7015 27.2285 36.2065 26.3815C35.7115 25.5345 35.0405 24.8635 34.1935 24.3685C33.3575 23.8625 32.417 23.6095 31.372 23.6095C30.305 23.6095 29.348 23.868 28.501 24.385C27.654 24.902 26.983 25.584 26.488 26.431C26.004 27.278 25.762 28.202 25.762 29.203H23.848C23.848 27.806 24.1835 26.5465 24.8545 25.4245C25.5255 24.2915 26.4275 23.395 27.5605 22.735C28.7045 22.075 29.9805 21.745 31.3885 21.745C32.8075 21.745 34.078 22.086 35.2 22.768C36.333 23.439 37.2295 24.341 37.8895 25.474C38.5495 26.607 38.8795 27.8555 38.8795 29.2195C38.8795 30.1655 38.7695 31.0125 38.5495 31.7605C38.3405 32.4975 38.005 33.1905 37.543 33.8395C37.081 34.4775 36.487 35.121 35.761 35.77L25.4485 45.1255L25.0525 44.1355H38.8795V46H23.65Z" fill="white"/>
<defs>
<linearGradient id="paint0_linear_3_1279" x1="5.16667" y1="4.35085" x2="65.4127" y2="8.17028" gradientUnits="userSpaceOnUse">
<stop stop-color="white"/>
<stop offset="1" stop-color="#7371FF"/>
</linearGradient>
</defs>
</svg>
