<svg width="62" height="62" viewBox="0 0 62 62" fill="none" xmlns="http://www.w3.org/2000/svg">
<rect x="0.5" y="0.5" width="61" height="61" rx="30.5" fill="url(#paint0_linear_3_1282)" fill-opacity="0.07"/>
<rect x="0.5" y="0.5" width="61" height="61" rx="30.5" stroke="white"/>
<path d="M30.547 46.4785C29.381 46.4785 28.314 46.2805 27.346 45.8845C26.378 45.4775 25.5475 44.9 24.8545 44.152C24.1615 43.393 23.65 42.491 23.32 41.446L25.1185 40.8685C25.5585 42.1225 26.2625 43.0685 27.2305 43.7065C28.1985 44.3445 29.2985 44.6525 30.5305 44.6305C31.6745 44.5975 32.648 44.339 33.451 43.855C34.265 43.371 34.8865 42.7 35.3155 41.842C35.7445 40.984 35.959 39.972 35.959 38.806C35.959 37.046 35.4585 35.6435 34.4575 34.5985C33.4565 33.5425 32.1255 33.0145 30.4645 33.0145C30.0245 33.0145 29.546 33.0805 29.029 33.2125C28.512 33.3335 28.039 33.4985 27.61 33.7075L26.587 32.1895L36.223 23.0815L36.6355 24.1045H24.277V22.24H37.7245V24.121L29.128 32.338L29.095 31.4305C30.8 31.1225 32.318 31.2435 33.649 31.7935C34.991 32.3325 36.0415 33.2125 36.8005 34.4335C37.5705 35.6545 37.9555 37.112 37.9555 38.806C37.9555 40.346 37.6365 41.6935 36.9985 42.8485C36.3715 43.9925 35.5025 44.8835 34.3915 45.5215C33.2805 46.1595 31.999 46.4785 30.547 46.4785Z" fill="white"/>
<defs>
<linearGradient id="paint0_linear_3_1282" x1="5.16667" y1="4.35085" x2="65.4127" y2="8.17028" gradientUnits="userSpaceOnUse">
<stop stop-color="white"/>
<stop offset="1" stop-color="#7371FF"/>
</linearGradient>
</defs>
</svg>
