<svg width="17" height="17" viewBox="0 0 17 17" fill="none" xmlns="http://www.w3.org/2000/svg">
<path d="M8.5 10.625C9.67361 10.625 10.625 9.67361 10.625 8.5C10.625 7.32639 9.67361 6.375 8.5 6.375C7.32639 6.375 6.375 7.32639 6.375 8.5C6.375 9.67361 7.32639 10.625 8.5 10.625Z" fill="#FF57FF"/>
<path d="M16.4369 8.31938C15.8121 6.70313 14.7273 5.30539 13.3168 4.29892C11.9062 3.29245 10.2316 2.72137 8.50002 2.65625C6.76842 2.72137 5.09385 3.29245 3.68328 4.29892C2.27271 5.30539 1.18798 6.70313 0.563143 8.31938C0.520944 8.43609 0.520944 8.56391 0.563143 8.68062C1.18798 10.2969 2.27271 11.6946 3.68328 12.7011C5.09385 13.7075 6.76842 14.2786 8.50002 14.3438C10.2316 14.2786 11.9062 13.7075 13.3168 12.7011C14.7273 11.6946 15.8121 10.2969 16.4369 8.68062C16.4791 8.56391 16.4791 8.43609 16.4369 8.31938ZM8.50002 11.9531C7.81705 11.9531 7.14943 11.7506 6.58156 11.3712C6.0137 10.9917 5.57111 10.4524 5.30975 9.82145C5.04839 9.19048 4.98 8.49617 5.11324 7.82633C5.24648 7.15649 5.57536 6.5412 6.05829 6.05827C6.54122 5.57534 7.15651 5.24647 7.82635 5.11323C8.49619 4.97999 9.19049 5.04837 9.82147 5.30973C10.4524 5.57109 10.9918 6.01368 11.3712 6.58155C11.7506 7.14941 11.9531 7.81704 11.9531 8.5C11.9517 9.41539 11.5875 10.2929 10.9402 10.9402C10.2929 11.5875 9.41541 11.9517 8.50002 11.9531Z" fill="#FF57FF"/>
</svg>
