<svg width="243" height="67" viewBox="0 0 243 67" fill="none" xmlns="http://www.w3.org/2000/svg">
<path d="M197.734 31.3692C195.97 31.3692 194.421 31.041 193.088 30.3847C191.755 29.7079 190.709 28.7747 189.95 27.5852C189.212 26.3751 188.843 24.9907 188.843 23.432C188.843 21.8938 189.202 20.5299 189.92 19.3404C190.658 18.1508 191.663 17.2176 192.934 16.5408C194.206 15.8435 195.642 15.4948 197.241 15.4948C198.821 15.4948 200.215 15.823 201.425 16.4793C202.635 17.1151 203.579 18.0073 204.256 19.1558C204.953 20.3043 205.302 21.6169 205.302 23.0936C205.302 23.4012 205.281 23.7294 205.24 24.0781C205.22 24.4062 205.158 24.7959 205.056 25.2471L191.396 25.3394V21.6477L202.81 21.5554L200.01 23.1859C200.01 22.3655 199.908 21.699 199.703 21.1862C199.518 20.653 199.231 20.253 198.841 19.9864C198.451 19.7198 197.959 19.5865 197.364 19.5865C196.749 19.5865 196.216 19.7403 195.765 20.0479C195.314 20.3556 194.965 20.7965 194.719 21.3708C194.493 21.9451 194.38 22.6424 194.38 23.4628C194.38 24.3037 194.503 25.0112 194.75 25.5855C195.016 26.1393 195.396 26.5597 195.888 26.8468C196.38 27.134 196.995 27.2775 197.734 27.2775C198.451 27.2775 199.077 27.1647 199.61 26.9391C200.164 26.693 200.667 26.3136 201.118 25.8009L204.133 28.785C203.374 29.6464 202.461 30.2924 201.395 30.7231C200.328 31.1538 199.108 31.3692 197.734 31.3692ZM216.732 31V22.5091C216.732 21.9143 216.558 21.4631 216.209 21.1555C215.881 20.8273 215.46 20.6632 214.948 20.6632C214.599 20.6632 214.281 20.735 213.994 20.8786C213.727 21.0221 213.512 21.2375 213.348 21.5246C213.204 21.7913 213.133 22.1194 213.133 22.5091L210.795 21.4631C210.795 20.2325 211.061 19.1763 211.594 18.2944C212.148 17.4125 212.897 16.7357 213.84 16.2639C214.804 15.7922 215.891 15.5564 217.101 15.5564C218.188 15.5564 219.152 15.8025 219.993 16.2947C220.854 16.7664 221.531 17.4227 222.023 18.2636C222.516 19.084 222.762 20.0377 222.762 21.1247V31H216.732ZM207.103 31V15.864H213.133V31H207.103ZM227.158 31V9.64965H233.188V31H227.158ZM223.928 20.7863V15.864H236.418V20.7863H223.928Z" fill="#FF4BED"/>
<path d="M6.07957 56.2173V29.5315C6.07957 27.5436 6.5176 25.7578 7.39364 24.1742C8.30339 22.5569 9.56692 21.2933 11.1842 20.3836C12.8016 19.4402 14.7221 18.9684 16.9459 18.9684C18.6306 18.9684 20.0963 19.2548 21.343 19.8276C22.6234 20.3667 23.7353 21.1249 24.6787 22.102L19.8268 26.9539C19.4898 26.617 19.1024 26.3643 18.6643 26.1958C18.26 25.9937 17.7714 25.8926 17.1986 25.8926C16.1541 25.8926 15.3286 26.1958 14.7221 26.8023C14.1156 27.4088 13.8124 28.2343 13.8124 29.2788V56.2173H6.07957ZM0.671667 38.2246V31.6543H20.8881V38.2246H0.671667ZM34.1331 56.7227C31.8756 56.7227 29.8539 56.1667 28.0681 55.0548C26.3161 53.9429 24.9177 52.4267 23.8732 50.5061C22.8624 48.5856 22.357 46.3954 22.357 43.9358C22.357 41.4761 22.8624 39.286 23.8732 37.3654C24.9177 35.4449 26.3161 33.9286 28.0681 32.8167C29.8539 31.7048 31.8756 31.1489 34.1331 31.1489C35.7841 31.1489 37.2666 31.469 38.5807 32.1091C39.9285 32.7493 41.0235 33.6422 41.8659 34.7878C42.7082 35.8997 43.18 37.1801 43.281 38.629V49.2426C43.18 50.6914 42.7082 51.9887 41.8659 53.1343C41.0572 54.2462 39.979 55.1222 38.6313 55.7624C37.2835 56.4026 35.7841 56.7227 34.1331 56.7227ZM35.6999 49.748C37.3509 49.748 38.6818 49.2089 39.6926 48.1307C40.7034 47.0188 41.2089 45.6205 41.2089 43.9358C41.2089 42.7902 40.973 41.7794 40.5013 40.9033C40.0633 40.0273 39.4231 39.3534 38.5807 38.8817C37.7721 38.3762 36.8286 38.1235 35.7504 38.1235C34.6722 38.1235 33.7119 38.3762 32.8696 38.8817C32.0609 39.3534 31.4039 40.0273 30.8985 40.9033C30.4267 41.7794 30.1909 42.7902 30.1909 43.9358C30.1909 45.0477 30.4267 46.0417 30.8985 46.9177C31.3702 47.7938 32.0272 48.4845 32.8696 48.9899C33.7119 49.4953 34.6553 49.748 35.6999 49.748ZM40.9056 56.2173V49.5964L42.0681 43.6325L40.9056 37.6687V31.6543H48.4868V56.2173H40.9056ZM61.5126 56.3184L51.4043 31.6543H59.7436L66.1624 51.2137H63.0794L69.6497 31.6543H77.989L67.4764 56.3184H61.5126ZM55.1949 66.5782L62.5739 50.6578L67.4764 56.3184L63.1299 66.5782H55.1949ZM90.2516 56.7227C87.9941 56.7227 85.9724 56.1667 84.1866 55.0548C82.4345 53.9429 81.0362 52.4267 79.9917 50.5061C78.9809 48.5856 78.4755 46.3954 78.4755 43.9358C78.4755 41.4761 78.9809 39.286 79.9917 37.3654C81.0362 35.4449 82.4345 33.9286 84.1866 32.8167C85.9724 31.7048 87.9941 31.1489 90.2516 31.1489C91.9026 31.1489 93.3851 31.469 94.6992 32.1091C96.0469 32.7493 97.142 33.6422 97.9844 34.7878C98.8267 35.8997 99.2984 37.1801 99.3995 38.629V49.2426C99.2984 50.6914 98.8267 51.9887 97.9844 53.1343C97.1757 54.2462 96.0975 55.1222 94.7497 55.7624C93.402 56.4026 91.9026 56.7227 90.2516 56.7227ZM91.8183 49.748C93.4693 49.748 94.8003 49.2089 95.8111 48.1307C96.8219 47.0188 97.3273 45.6205 97.3273 43.9358C97.3273 42.7902 97.0915 41.7794 96.6197 40.9033C96.1817 40.0273 95.5415 39.3534 94.6992 38.8817C93.8905 38.3762 92.9471 38.1235 91.8689 38.1235C90.7907 38.1235 89.8304 38.3762 88.988 38.8817C88.1794 39.3534 87.5223 40.0273 87.0169 40.9033C86.5452 41.7794 86.3093 42.7902 86.3093 43.9358C86.3093 45.0477 86.5452 46.0417 87.0169 46.9177C87.4886 47.7938 88.1457 48.4845 88.988 48.9899C89.8304 49.4953 90.7738 49.748 91.8183 49.748ZM97.0241 56.2173V49.5964L98.1865 43.6325L97.0241 37.6687V31.6543H104.605V56.2173H97.0241ZM126.274 56.2173V42.2174C126.274 40.937 125.869 39.9093 125.061 39.1344C124.286 38.3257 123.292 37.9214 122.079 37.9214C121.236 37.9214 120.495 38.1067 119.855 38.4773C119.215 38.8143 118.709 39.3197 118.339 39.9936C117.968 40.6338 117.783 41.375 117.783 42.2174L114.801 40.7517C114.801 38.8311 115.222 37.1464 116.064 35.6976C116.907 34.2487 118.069 33.1368 119.552 32.3618C121.068 31.5532 122.769 31.1489 124.656 31.1489C126.476 31.1489 128.076 31.5869 129.458 32.4629C130.873 33.3053 131.985 34.434 132.793 35.8492C133.602 37.2643 134.006 38.8143 134.006 40.499V56.2173H126.274ZM110.05 56.2173V31.6543H117.783V56.2173H110.05ZM150.85 56.7732C148.323 56.7732 146.032 56.2173 143.976 55.1054C141.921 53.9935 140.304 52.4604 139.124 50.5061C137.945 48.5519 137.356 46.3618 137.356 43.9358C137.356 41.4761 137.945 39.286 139.124 37.3654C140.337 35.4112 141.972 33.8781 144.027 32.7662C146.082 31.6543 148.39 31.0983 150.951 31.0983C152.872 31.0983 154.624 31.4353 156.207 32.1091C157.825 32.7493 159.257 33.7265 160.503 35.0405L155.55 39.9936C154.978 39.3534 154.304 38.8817 153.529 38.5784C152.787 38.2752 151.928 38.1235 150.951 38.1235C149.839 38.1235 148.845 38.3762 147.969 38.8817C147.127 39.3534 146.453 40.0273 145.948 40.9033C145.476 41.7457 145.24 42.7396 145.24 43.8852C145.24 45.0308 145.476 46.0417 145.948 46.9177C146.453 47.7938 147.144 48.4845 148.02 48.9899C148.896 49.4953 149.873 49.748 150.951 49.748C151.962 49.748 152.855 49.5795 153.63 49.2426C154.438 48.872 155.129 48.3666 155.702 47.7264L160.604 52.6794C159.324 54.0272 157.875 55.0548 156.258 55.7624C154.641 56.4363 152.838 56.7732 150.85 56.7732ZM175.584 56.7732C172.922 56.7732 170.546 56.2341 168.457 55.1559C166.402 54.044 164.785 52.5109 163.605 50.5567C162.426 48.6024 161.836 46.3954 161.836 43.9358C161.836 41.4761 162.409 39.286 163.555 37.3654C164.734 35.4112 166.318 33.8781 168.306 32.7662C170.294 31.6543 172.534 31.0983 175.028 31.0983C177.454 31.0983 179.593 31.6206 181.446 32.6651C183.3 33.7096 184.748 35.1585 185.793 37.0116C186.871 38.8648 187.41 40.9875 187.41 43.3798C187.41 43.8178 187.377 44.2896 187.309 44.795C187.275 45.2667 187.191 45.8226 187.056 46.4628L165.88 46.5134V41.2066L183.771 41.156L180.436 43.3798C180.402 41.9647 180.183 40.8022 179.779 39.8925C179.374 38.949 178.768 38.2415 177.959 37.7698C177.184 37.2643 176.224 37.0116 175.078 37.0116C173.865 37.0116 172.804 37.298 171.894 37.8708C171.018 38.4099 170.327 39.1849 169.822 40.1957C169.35 41.2066 169.114 42.4364 169.114 43.8852C169.114 45.3341 169.367 46.5808 169.872 47.6253C170.412 48.6361 171.153 49.4279 172.096 50.0007C173.073 50.5398 174.219 50.8094 175.533 50.8094C176.746 50.8094 177.841 50.6072 178.818 50.2029C179.795 49.7649 180.655 49.1247 181.396 48.2823L185.641 52.5278C184.428 53.9429 182.963 55.0043 181.244 55.7119C179.526 56.4194 177.639 56.7732 175.584 56.7732Z" fill="white"/>
</svg>
